<?xml version="1.0" encoding="UTF-8"?>
<svg width="110px" height="110px" viewBox="0 0 110 110" version="1.1" xmlns="http://www.w3.org/2000/svg" xmlns:xlink="http://www.w3.org/1999/xlink">
    <!-- Generator: Sketch 59.1 (86144) - https://sketch.com -->
    <title>Miniature - Bookmark</title>
    <desc>Created with Sketch.</desc>
    <g id="Miniature---Bookmark" stroke="none" stroke-width="1" fill="none" fill-rule="evenodd">
        <rect id="Area" fill="#F4F2F5" x="5" y="5" width="100" height="100" rx="8"></rect>
        <path d="M39.1452718,81 C37.3978986,81 36,79.9282778 36,77.4586569 L36,37.6651439 C36,32.632709 38.6094107,30 43.595249,30 L66.2878026,30 C71.2736409,30 73.8830516,32.632709 73.8830516,37.6651439 L73.8830516,77.4586569 C73.8830516,79.9282778 72.4618547,81 70.7144815,81 C69.3864778,81 68.5477387,80.3010507 67.5226131,79.3225217 L56.0365464,68.3490178 C55.5472819,67.9063499 55.2444038,67.7432618 54.9415258,67.7432618 C54.6386478,67.7432618 54.3357698,67.8830516 53.8465053,68.3490178 L43.5020557,78.1809045 L42.6549445,78.9718224 C41.0422418,80.4632524 40.3101873,81 39.1452718,81 Z" id="Bookmark" fill="#59585A" fill-rule="nonzero"></path>
    </g>
</svg>