<?xml version="1.0" encoding="UTF-8"?>
<svg width="110px" height="110px" viewBox="0 0 110 110" version="1.1" xmlns="http://www.w3.org/2000/svg" xmlns:xlink="http://www.w3.org/1999/xlink">
    <!-- Generator: Sketch 59.1 (86144) - https://sketch.com -->
    <title>Miniature - Dislike</title>
    <desc>Created with Sketch.</desc>
    <g id="Miniature---Dislike" stroke="none" stroke-width="1" fill="none" fill-rule="evenodd">
        <rect id="Area" fill="#F4F2F5" x="5" y="5" width="100" height="100" rx="8"></rect>
        <path d="M36.0256655,26.5983865 L35.832478,26.6447948 C33.6523094,27.1758615 31.4721408,28.5734055 31.4721408,31.2566899 C31.4721408,32.3467742 31.7516496,33.1293989 32.1429619,33.7443182 C32.347935,34.0773995 32.3415296,34.3400213 32.0806871,34.4891251 L32.0032075,34.5269428 C30.2423021,35.3095675 28.7609054,36.9027676 28.7609054,39.138838 C28.7609054,40.3327399 29.074212,41.3820387 29.6113089,42.1748393 L29.7391862,42.3531892 C30.0745968,42.7724524 29.9907441,43.1358138 29.5155792,43.4153226 C28.2018878,44.1420455 27.3633614,45.7631965 27.3633614,47.6079546 C27.3633614,48.8395402 27.7318545,50.1448245 28.4227789,50.8789445 L28.5652493,51.0179619 C28.9565616,51.3831867 28.9096041,51.6510183 28.5152772,52.0032573 L28.4254949,52.0800953 C27.5031158,52.7788673 27,54.1205096 27,55.7137097 C27,58.4528959 29.1242669,60.6889663 31.891404,60.6889663 L41.869868,60.6889663 C44.4133981,60.6889663 46.0904509,61.9747068 46.0904509,64.0710227 C46.0904509,67.9002933 41.3388013,74.8321114 41.3388013,79.8632698 C41.3388013,82.4627016 43.043805,84 45.2519245,84 C47.2643878,84 48.2985704,82.602456 49.3886547,80.4781892 C53.5253849,72.2606305 59.1714626,65.6642229 63.4758981,59.9622434 C67.1095124,55.1267412 68.8983687,51.0179619 68.9822214,44.3377016 C69.1205641,34.100339 60.9326304,26.3006034 48.0243707,26.0627403 L43.742577,26.0019245 C40.2274743,25.9750917 37.6139553,26.2316137 36.0256655,26.5983865 L36.0256655,26.5983865 Z M82.7340542,44.1140946 C82.7340542,52.8347691 77.8706011,59.6268329 71.5537023,59.6268329 L67.444923,59.6268329 C69.9325513,56.5522361 72.6717375,51.4931269 72.783541,44.3936034 C72.8953445,38.0208028 70.5754215,32.4306269 65.5163123,28.7131599 L70.5195198,28.7131599 C77.5072397,28.7131599 82.7340542,35.7288307 82.7340542,44.1140946 Z" id="Icon" fill="#59585A" fill-rule="nonzero"></path>
    </g>
</svg>