<?xml version="1.0" encoding="UTF-8"?>
<svg width="110px" height="110px" viewBox="0 0 110 110" version="1.1" xmlns="http://www.w3.org/2000/svg" xmlns:xlink="http://www.w3.org/1999/xlink">
    <!-- Generator: Sketch 59.1 (86144) - https://sketch.com -->
    <title>Miniature - Exclamation</title>
    <desc>Created with Sketch.</desc>
    <g id="Miniature---Exclamation" stroke="none" stroke-width="1" fill="none" fill-rule="evenodd">
        <rect id="Area" fill="#F4F2F5" x="5" y="5" width="100" height="100" rx="8"></rect>
        <path d="M34.4379947,80 L75.8891821,80 C79.8469657,80 82.3271768,77.1503958 82.3271768,73.5620053 C82.3271768,72.4802111 82.0633245,71.3984169 81.4828496,70.3957784 L60.7176781,33.2453826 C59.530343,31.1081794 57.3403694,30 55.176781,30 C52.9868074,30 50.7968338,31.1081794 49.6094987,33.2453826 L28.8707124,70.4221636 C28.2902375,71.4248021 28,72.4802111 28,73.5620053 C28,77.1503958 30.4802111,80 34.4379947,80 Z M55.176781,61.9261214 C53.7783641,61.9261214 53.0131926,61.1345646 52.9604222,59.7097625 L52.591029,46.6754617 C52.5382586,45.2506596 53.646438,44.1952507 55.1503958,44.1952507 C56.6279683,44.1952507 57.762533,45.2770449 57.7097625,46.701847 L57.3403694,59.7097625 C57.2875989,61.1609499 56.4960422,61.9261214 55.176781,61.9261214 Z M55.176781,71.6622691 C53.646438,71.6622691 52.2216359,70.4485488 52.2216359,68.8126649 C52.2216359,67.176781 53.6200528,65.9630607 55.176781,65.9630607 C56.707124,65.9630607 58.1319261,67.1503958 58.1319261,68.8126649 C58.1319261,70.474934 56.6807388,71.6622691 55.176781,71.6622691 Z" id="Exclamation" fill="#59585A" fill-rule="nonzero"></path>
    </g>
</svg>