<?xml version="1.0" encoding="UTF-8"?>
<svg width="110px" height="110px" viewBox="0 0 110 110" version="1.1" xmlns="http://www.w3.org/2000/svg" xmlns:xlink="http://www.w3.org/1999/xlink">
    <!-- Generator: Sketch 59.1 (86144) - https://sketch.com -->
    <title>Miniature - Moon</title>
    <desc>Created with Sketch.</desc>
    <g id="Miniature---Moon" stroke="none" stroke-width="1" fill="none" fill-rule="evenodd">
        <rect id="Area" fill="#F4F2F5" x="5" y="5" width="100" height="100" rx="8"></rect>
        <path d="M71.8172883,61.7570565 C74.6737525,61.7570565 77.5522789,61.1613792 79.4468346,60.577836 L79.7376512,60.4858871 C80.2021169,60.3392137 80.4710181,60.265877 80.7888105,60.265877 C81.4732863,60.265877 82.2310988,60.8770161 82.2310988,61.781502 L82.224254,61.954381 C82.2046976,62.2352117 82.1382056,62.7006552 81.9621976,63.1504536 C78.9309476,71.1197077 69.812752,77.5 59.2767137,77.5 C44.9516129,77.5 34,67.2328629 34,52.858871 C34,42.6161794 40.0625,32.8868448 49.1073589,29.2689012 C49.6451613,29.0733367 50.2318548,29 50.500756,29 C51.4541331,29 51.9430444,29.7333669 51.9430444,30.3933972 C51.9430444,30.6378528 51.8941532,30.9800907 51.6741431,31.5423387 C50.7941028,33.5713206 50.1340726,37.4826109 50.1340726,40.2205141 C50.1340726,53.4700101 58.5922379,61.7570565 71.8172883,61.7570565 Z" id="Icon" fill="#59585A" fill-rule="nonzero"></path>
    </g>
</svg>