<?xml version="1.0" encoding="UTF-8"?>
<svg width="110px" height="110px" viewBox="0 0 110 110" version="1.1" xmlns="http://www.w3.org/2000/svg" xmlns:xlink="http://www.w3.org/1999/xlink">
    <!-- Generator: Sketch 59.1 (86144) - https://sketch.com -->
    <title>Miniature - Search</title>
    <desc>Created with Sketch.</desc>
    <g id="Miniature---Search" stroke="none" stroke-width="1" fill="none" fill-rule="evenodd">
        <rect id="Area" fill="#F4F2F5" x="5" y="5" width="100" height="100" rx="8"></rect>
        <path d="M49.4623882,72.9247764 C54.5576013,72.9247764 59.256181,71.2772225 63.1004734,68.5312993 L77.5623356,82.9931615 C78.2335613,83.6643872 79.1183588,84 80.0641767,84 C82.0473435,84 83.4508154,82.4744871 83.4508154,80.5218306 C83.4508154,79.6065229 83.1457128,78.7522357 82.4744871,78.08101 L68.1041557,63.6801683 C71.1246712,59.7138348 72.9247764,54.8016833 72.9247764,49.4623882 C72.9247764,36.5565492 62.3682272,26 49.4623882,26 C36.5565492,26 26,36.5565492 26,49.4623882 C26,62.3682272 36.5565492,72.9247764 49.4623882,72.9247764 Z M49.4623882,67.8600736 C39.3940032,67.8600736 31.0647028,59.5307733 31.0647028,49.4623882 C31.0647028,39.3940032 39.3940032,31.0647028 49.4623882,31.0647028 C59.5307733,31.0647028 67.8600736,39.3940032 67.8600736,49.4623882 C67.8600736,59.5307733 59.5307733,67.8600736 49.4623882,67.8600736 Z" id="Icon" fill="#59585A" fill-rule="nonzero"></path>
    </g>
</svg>