<?xml version="1.0" encoding="UTF-8"?>
<svg width="110px" height="110px" viewBox="0 0 110 110" version="1.1" xmlns="http://www.w3.org/2000/svg" xmlns:xlink="http://www.w3.org/1999/xlink">
    <!-- Generator: Sketch 59.1 (86144) - https://sketch.com -->
    <title>Miniature - Star</title>
    <desc>Created with Sketch.</desc>
    <g id="Miniature---Star" stroke="none" stroke-width="1" fill="none" fill-rule="evenodd">
        <rect id="Area" fill="#F4F2F5" x="5" y="5" width="100" height="100" rx="8"></rect>
        <path d="M35.8451853,83.4897843 C34.7572207,82.6671769 34.4798018,81.3379785 35.061285,79.4780109 L40.9602615,61.8897071 L26.1154208,51.2425648 C24.3918625,50.0193944 23.66908,48.712826 24.1416686,47.350659 C24.5864578,45.988492 25.8930262,45.3213081 28.0335744,45.3491075 L46.2421337,45.4881041 L51.7741998,28.0857253 C52.4413836,26.0563744 53.4421594,25 54.8599251,25 C56.3054901,25 57.3062659,26.0563744 57.9734497,28.0857253 L63.5055158,45.4881041 L81.7140751,45.3491075 C83.8546233,45.3213081 85.1611916,45.988492 85.6059809,47.350659 C86.0507701,48.712826 85.3557869,50.0193944 83.6322287,51.2425648 L68.787388,61.8897071 L74.5974473,79.2086879 C75.2924305,81.2102395 75.0422366,82.6280052 73.9024642,83.4897843 C72.7348924,84.3793628 71.3171267,84.0735702 69.5935685,82.8226004 L54.8599251,72.0086622 L40.154081,82.8226004 C38.4305227,84.0735702 36.9849577,84.3793628 35.8451853,83.4897843 Z" id="Icon" fill="#59585A" fill-rule="nonzero"></path>
    </g>
</svg>