<?xml version="1.0" encoding="UTF-8"?>
<svg width="110px" height="110px" viewBox="0 0 110 110" version="1.1" xmlns="http://www.w3.org/2000/svg" xmlns:xlink="http://www.w3.org/1999/xlink">
    <!-- Generator: Sketch 59.1 (86144) - https://sketch.com -->
    <title>Miniature - Doc</title>
    <desc>Created with Sketch.</desc>
    <g id="Miniature---Doc" stroke="none" stroke-width="1" fill="none" fill-rule="evenodd">
        <rect id="Area" fill="#F4F2F5" x="5" y="5" width="100" height="100" rx="8"></rect>
        <path d="M41.9589844,81.9052734 L67.984375,81.9052734 C73.2333984,81.9052734 75.9433594,79.1220703 75.9433594,73.8486328 L75.9433594,52.0224609 L57.6328125,52.0224609 C54.5810547,52.0224609 53.1162109,50.5576172 53.1162109,47.5058594 L53.1162109,29 L41.9589844,29 C36.734375,29 34,31.7587891 34,37.0322266 L34,73.8486328 C34,79.1464844 36.734375,81.9052734 41.9589844,81.9052734 Z M58.0966797,48.4580078 C57.1689453,48.4580078 56.7050781,47.9941406 56.6806641,47.0419922 L56.6806641,29.2441406 C57.8037109,29.390625 58.9023438,30.2207031 60.1230469,31.4414062 L73.4775391,44.9912109 C74.7470703,46.2851562 75.5527344,47.3349609 75.6992188,48.4580078 L58.0966797,48.4580078 Z" id="Doc" fill="#59585A" fill-rule="nonzero"></path>
    </g>
</svg>