<?xml version="1.0" encoding="UTF-8"?>
<svg width="110px" height="110px" viewBox="0 0 110 110" version="1.1" xmlns="http://www.w3.org/2000/svg" xmlns:xlink="http://www.w3.org/1999/xlink">
    <!-- Generator: Sketch 59.1 (86144) - https://sketch.com -->
    <title>Miniature - Repeat</title>
    <desc>Created with Sketch.</desc>
    <g id="Miniature---Repeat" stroke="none" stroke-width="1" fill="none" fill-rule="evenodd">
        <rect id="Area" fill="#F4F2F5" x="5" y="5" width="100" height="100" rx="8"></rect>
        <path d="M20,52.7553711 C20,54.6914062 21.5551758,56.246582 23.4912109,56.246582 C25.4272461,56.246582 26.9824219,54.6914062 26.9824219,52.7553711 L26.9824219,50.6606445 C26.9824219,45.6142578 30.4736328,42.2817383 35.6787109,42.2817383 L59.609375,42.2817383 L59.609375,48.9150391 C59.609375,50.6289062 60.7202148,51.7080078 62.4658203,51.7080078 C63.2275391,51.7080078 64.0209961,51.4223633 64.6240234,50.9145508 L76.6210938,41.012207 C78.0493164,39.8696289 78.0175781,37.965332 76.6210938,36.7592773 L64.6240234,26.793457 C64.0209961,26.3173828 63.2275391,26 62.4658203,26 C60.7202148,26 59.609375,27.1108398 59.609375,28.824707 L59.609375,35.3945312 L36.3452148,35.3945312 C26.3476562,35.3945312 20,41.1391602 20,50.152832 L20,52.7553711 Z M49.7387695,61.2612305 L49.7387695,67.8310547 L73.6694336,67.8310547 C78.8745117,67.8310547 82.3657227,64.4667969 82.3657227,59.4521484 L82.3657227,57.3574219 C82.3657227,55.3896484 83.9208984,53.8344727 85.8569336,53.8344727 C87.7929688,53.8344727 89.3481445,55.3896484 89.3481445,57.3574219 L89.3481445,59.9599609 C89.3481445,68.9418945 83.0004883,74.7182617 73.0029297,74.7182617 L49.7387695,74.7182617 L49.7387695,81.3515625 C49.7387695,83.0654297 48.659668,84.1445312 46.8823242,84.1445312 C46.1898526,84.1445312 45.4711511,83.9084614 44.916983,83.4840125 L32.7587891,73.3852539 C31.2988281,72.1791992 31.3305664,70.3066406 32.7587891,69.1323242 L44.7558594,59.2299805 C45.3271484,58.7539062 46.1206055,58.4682617 46.8823242,58.4682617 C48.659668,58.4682617 49.7387695,59.5473633 49.7387695,61.2612305 Z" id="Icon" fill="#59585A" fill-rule="nonzero"></path>
    </g>
</svg>