<?xml version="1.0" encoding="UTF-8"?>
<svg width="110px" height="110px" viewBox="0 0 110 110" version="1.1" xmlns="http://www.w3.org/2000/svg" xmlns:xlink="http://www.w3.org/1999/xlink">
    <!-- Generator: Sketch 59.1 (86144) - https://sketch.com -->
    <title>Miniature - Cart</title>
    <desc>Created with Sketch.</desc>
    <g id="Miniature---Cart" stroke="none" stroke-width="1" fill="none" fill-rule="evenodd">
        <rect id="Area" fill="#F4F2F5" x="5" y="5" width="100" height="100" rx="8"></rect>
        <path d="M22,29.1209686 C22,30.2804314 22.9615057,31.2702167 24.092689,31.2702167 L33.6511873,31.2702167 L38.1759203,62.3211965 C38.7697915,66.336897 40.89076,68.8537797 44.9912993,68.8537797 L77.9935701,68.8537797 C79.0964738,68.8537797 80.0579795,67.9488331 80.0579795,66.7328111 C80.0579795,65.5167892 79.0964738,64.6118426 77.9935701,64.6118426 L45.4720521,64.6118426 C43.860116,64.6118426 42.8703307,63.4806593 42.6158145,61.7556049 L42.1633412,58.7862489 L78.0501293,58.7862489 C82.0871966,58.7862489 84.2046599,56.3529481 84.8519288,52.4644733 L87.1561543,37.2372083 C87.2127135,36.8695737 87.2692727,36.4171004 87.2692727,36.1625842 C87.2692727,34.8051643 86.2512077,33.8719382 84.6958308,33.8719382 L38.5435548,33.8719382 L37.9779632,30.2804314 C37.6951674,28.1029037 36.9033391,27 34.0188219,27 L24.092689,27 C22.9615057,27 22,27.9897853 22,29.1209686 Z M42.6158145,78.0163639 C42.6158145,80.5898058 44.6519443,82.597656 47.2253861,82.597656 C49.7705484,82.597656 51.8066782,80.5898058 51.8066782,78.0163639 C51.8066782,75.4712016 49.7705484,73.4350718 47.2253861,73.4350718 C44.6519443,73.4350718 42.6158145,75.4712016 42.6158145,78.0163639 Z M69.0572226,78.0163639 C69.0572226,75.4712016 71.121632,73.4350718 73.6667943,73.4350718 C76.2402361,73.4350718 78.2763659,75.4712016 78.2763659,78.0163639 C78.2763659,80.5898058 76.2402361,82.597656 73.6667943,82.597656 C71.121632,82.597656 69.0572226,80.5898058 69.0572226,78.0163639 Z" id="Icon" fill="#59585A" fill-rule="nonzero"></path>
    </g>
</svg>