<?xml version="1.0" encoding="UTF-8"?>
<svg width="110px" height="110px" viewBox="0 0 110 110" version="1.1" xmlns="http://www.w3.org/2000/svg" xmlns:xlink="http://www.w3.org/1999/xlink">
    <!-- Generator: Sketch 59.1 (86144) - https://sketch.com -->
    <title>Miniature - Repeat</title>
    <desc>Created with Sketch.</desc>
    <g id="Miniature---Repeat" stroke="none" stroke-width="1" fill="none" fill-rule="evenodd">
        <rect id="Area" fill="#F4F2F5" x="5" y="5" width="100" height="100" rx="8"></rect>
        <path d="M25,53.0076419 C25,54.6724891 26.3373362,56.0098253 28.0021834,56.0098253 C29.6670306,56.0098253 31.0043668,54.6724891 31.0043668,53.0076419 L31.0043668,51.2063319 C31.0043668,46.8668122 34.0065502,44.0010917 38.4825328,44.0010917 L59.0611354,44.0010917 L59.0611354,49.7052402 C59.0611354,51.1790393 60.0163755,52.1069869 61.5174672,52.1069869 C62.1724891,52.1069869 62.8548035,51.8613537 63.3733624,51.4246725 L73.6899563,42.9093886 C74.9181223,41.9268559 74.8908297,40.2893013 73.6899563,39.2521834 L63.3733624,30.6823144 C62.8548035,30.2729258 62.1724891,30 61.5174672,30 C60.0163755,30 59.0611354,30.9552402 59.0611354,32.4290393 L59.0611354,38.0786026 L39.0556769,38.0786026 C30.4585153,38.0786026 25,43.018559 25,50.7696507 L25,53.0076419 Z M50.5731441,60.3220524 L50.5731441,65.9716157 L71.1517467,65.9716157 C75.6277293,65.9716157 78.6299127,63.0786026 78.6299127,58.7663755 L78.6299127,56.9650655 C78.6299127,55.2729258 79.9672489,53.9355895 81.6320961,53.9355895 C83.2969432,53.9355895 84.6342795,55.2729258 84.6342795,56.9650655 L84.6342795,59.2030568 C84.6342795,66.9268559 79.1757642,71.8941048 70.5786026,71.8941048 L50.5731441,71.8941048 L50.5731441,77.5982533 C50.5731441,79.0720524 49.6451965,80 48.1168122,80 C47.5213378,80 46.9033076,79.7969974 46.426764,79.4320027 L35.9716157,70.7478166 C34.7161572,69.7106987 34.7434498,68.1004367 35.9716157,67.0906114 L46.2882096,58.5753275 C46.779476,58.1659389 47.4617904,57.9203057 48.1168122,57.9203057 C49.6451965,57.9203057 50.5731441,58.8482533 50.5731441,60.3220524 Z" id="Icon" fill="#59585A" fill-rule="nonzero"></path>
    </g>
</svg>