<?xml version="1.0" encoding="UTF-8"?>
<svg width="110px" height="110px" viewBox="0 0 110 110" version="1.1" xmlns="http://www.w3.org/2000/svg" xmlns:xlink="http://www.w3.org/1999/xlink">
    <!-- Generator: Sketch 59.1 (86144) - https://sketch.com -->
    <title>Miniature - Shuffle</title>
    <desc>Created with Sketch.</desc>
    <g id="Miniature---Shuffle" stroke="none" stroke-width="1" fill="none" fill-rule="evenodd">
        <rect id="Area" fill="#F4F2F5" x="5" y="5" width="100" height="100" rx="8"></rect>
        <path d="M23,68.7546967 C23,67.037037 24.2882448,65.8293076 26.1669351,65.8293076 L32.3934514,65.8293076 C34.9431025,65.8293076 36.5802469,64.9436393 38.8078368,62.3939882 L45.2222222,54.9060655 L38.8078368,47.4449812 C36.6070853,44.8953301 34.969941,44.0096618 32.3934514,44.0096618 L26.1669351,44.0096618 C24.2882448,44.0096618 23,42.8019324 23,41.0842727 C23,39.3397746 24.2614063,38.1588835 26.1669351,38.1588835 L32.2592593,38.1588835 C36.9023081,38.1588835 39.6666667,39.5276436 43.0214707,43.4192163 L49.0332797,50.4508857 L55.071927,43.4192163 C58.3730542,39.5276436 61.1642512,38.1588835 65.8341385,38.1588835 L70.7724101,38.1588835 L70.7724101,32.3617821 C70.7724101,30.9125067 71.6849168,30 73.1610306,30 C73.805153,30 74.4761138,30.2415459 74.986044,30.6709608 L85.1309716,39.0982287 C86.338701,40.1180891 86.338701,41.7015566 85.1309716,42.6945786 L74.986044,51.0681696 C74.4761138,51.4975845 73.805153,51.7391304 73.1610306,51.7391304 C71.6849168,51.7391304 70.7724101,50.8266237 70.7724101,49.3773484 L70.7724101,43.9828234 L65.9951691,43.9828234 C63.291197,43.9828234 61.5947145,44.8140023 59.5149137,47.2083643 L52.898014,54.9060655 L59.3123994,62.3939882 C61.4863124,64.9436393 63.2039721,65.8293076 65.9951691,65.8293076 L70.7724101,65.8293076 L70.7724101,60.6226516 C70.7724101,59.1733763 71.6849168,58.2608696 73.1610306,58.2608696 C73.805153,58.2608696 74.4761138,58.5024155 74.986044,58.9318304 L85.1309716,67.3590982 C86.338701,68.3521202 86.338701,69.9624262 85.1309716,70.9554482 L74.986044,79.3290392 C74.4761138,79.7584541 73.805153,80 73.1610306,80 C71.6849168,80 70.7724101,79.0874933 70.7724101,77.6382179 L70.7724101,71.6800859 L65.8341385,71.6800859 C61.270385,71.6800859 58.5008972,70.3728352 55.2962417,66.6811918 L49.0332797,59.3880837 L43.0214707,66.4197531 C39.6666667,70.3113258 36.9023081,71.6532475 32.2592593,71.6532475 L26.1669351,71.6532475 C24.2614063,71.6532475 23,70.4723564 23,68.7546967 Z" id="Icon" fill="#59585A" fill-rule="nonzero"></path>
    </g>
</svg>