<?xml version="1.0" encoding="UTF-8"?>
<svg width="110px" height="110px" viewBox="0 0 110 110" version="1.1" xmlns="http://www.w3.org/2000/svg" xmlns:xlink="http://www.w3.org/1999/xlink">
    <!-- Generator: Sketch 59.1 (86144) - https://sketch.com -->
    <title>Miniature - Exclamation</title>
    <desc>Created with Sketch.</desc>
    <g id="Miniature---Exclamation" stroke="none" stroke-width="1" fill="none" fill-rule="evenodd">
        <rect id="Area" fill="#F4F2F5" x="5" y="5" width="100" height="100" rx="8"></rect>
        <path d="M35.051715,79 L74.0158311,79 C77.7361478,79 80.0675462,76.321372 80.0675462,72.948285 C80.0675462,71.9313984 79.8195251,70.9145119 79.2738786,69.9720317 L59.7546174,35.0506596 C58.6385224,33.0416887 56.5799472,32 54.5461741,32 C52.4875989,32 50.4290237,33.0416887 49.3129288,35.0506596 L29.8184697,69.9968338 C29.2728232,70.939314 29,71.9313984 29,72.948285 C29,76.321372 31.3313984,79 35.051715,79 Z M54.5461741,62.0105541 C53.2316623,62.0105541 52.5124011,61.2664908 52.4627968,59.9271768 L52.1155673,47.674934 C52.0659631,46.3356201 53.1076517,45.3435356 54.521372,45.3435356 C55.9102902,45.3435356 56.976781,46.3604222 56.9271768,47.6997361 L56.5799472,59.9271768 C56.530343,61.2912929 55.7862797,62.0105541 54.5461741,62.0105541 Z M54.5461741,71.162533 C53.1076517,71.162533 51.7683377,70.0216359 51.7683377,68.483905 C51.7683377,66.9461741 53.0828496,65.805277 54.5461741,65.805277 C55.9846966,65.805277 57.3240106,66.921372 57.3240106,68.483905 C57.3240106,70.046438 55.9598945,71.162533 54.5461741,71.162533 Z" id="Exclamation" fill="#59585A" fill-rule="nonzero"></path>
    </g>
</svg>