<?xml version="1.0" encoding="UTF-8"?>
<svg width="110px" height="110px" viewBox="0 0 110 110" version="1.1" xmlns="http://www.w3.org/2000/svg" xmlns:xlink="http://www.w3.org/1999/xlink">
    <!-- Generator: Sketch 59.1 (86144) - https://sketch.com -->
    <title>Miniature - Like</title>
    <desc>Created with Sketch.</desc>
    <g id="Miniature---Like" stroke="none" stroke-width="1" fill="none" fill-rule="evenodd">
        <rect id="Area" fill="#F4F2F5" x="5" y="5" width="100" height="100" rx="8"></rect>
        <path d="M73.7160168,83.3998494 L73.9015762,83.3552052 C76.0817448,82.8520894 78.2619135,81.4265945 78.2619135,78.7433101 C78.2619135,77.7370784 78.0237521,77.0166403 77.6793342,76.4061229 L77.5910923,76.2556818 C77.3674853,75.8923203 77.4233871,75.6128115 77.7308467,75.4730572 C79.4917522,74.6904325 80.9731488,73.1251833 80.9731488,70.861162 C80.9731488,69.6932145 80.6598422,68.6216691 80.1227453,67.8255579 L79.994868,67.6468108 C79.6594574,67.2275476 79.7433101,66.8921371 80.2464259,66.5846774 C81.5321664,65.8579545 82.3706928,64.2368035 82.3706928,62.3920454 C82.3706928,61.106305 81.9514296,59.6808101 81.1688049,58.9820381 C80.7495418,58.5907258 80.8333944,58.311217 81.3365102,57.9199047 C82.2309384,57.2211327 82.7340542,55.8794904 82.7340542,54.2862903 C82.7340542,51.5471041 80.6097874,49.3389846 77.8426503,49.3389846 L67.8641862,49.3389846 C65.3206561,49.3389846 63.6436033,48.0252932 63.6436033,45.9569281 C63.6436033,42.0997067 68.3952529,35.1678886 68.3952529,30.1646811 C68.3952529,27.5652493 66.6902492,26 64.4821297,26 C62.4696664,26 61.4354838,27.397544 60.3453995,29.5218108 C56.2086693,37.7393695 50.5625916,44.363728 46.2581561,50.0377566 C42.6245418,54.9012097 40.8356855,58.9820381 40.7518328,65.6902492 C40.6120784,76.0041239 48.9693915,83.8583211 62.106305,83.9701246 L65.9914772,83.9980755 C69.5122131,84.0249513 72.1284733,83.7675634 73.7160168,83.3998494 L73.7160168,83.3998494 Z M27,65.8859054 C27,57.1931818 31.8634531,50.3731671 38.1803519,50.3731671 L42.2891312,50.3731671 L41.9562095,50.7948784 C39.5632096,53.901493 37.0573477,58.8224075 36.9505132,65.6063966 C36.8387097,72.0071481 39.1586327,77.597324 44.2177419,81.2868401 L39.2145344,81.2868401 C32.2268145,81.2868401 27,74.2711693 27,65.8859054 Z" id="Icon" fill="#59585A" fill-rule="nonzero"></path>
    </g>
</svg>