<?xml version="1.0" encoding="UTF-8"?>
<svg width="110px" height="110px" viewBox="0 0 110 110" version="1.1" xmlns="http://www.w3.org/2000/svg" xmlns:xlink="http://www.w3.org/1999/xlink">
    <!-- Generator: Sketch 59.1 (86144) - https://sketch.com -->
    <title>Miniature - Flag</title>
    <desc>Created with Sketch.</desc>
    <g id="Miniature---Flag" stroke="none" stroke-width="1" fill="none" fill-rule="evenodd">
        <rect id="Area" fill="#F4F2F5" x="5" y="5" width="100" height="100" rx="8"></rect>
        <path d="M33.0142712,81 C31.9276249,81 31,80.0988787 31,79.0122324 L31,34.9633028 C31,32.5514781 32.1926606,31.1732926 34.0214067,30.351682 L34.3833456,30.1928066 C36.2346615,29.3976022 37.8499676,29 41.733945,29 C51.5667686,29 57.6890928,33.7971458 67.0183486,33.7971458 C71.5769623,33.7971458 74.0152905,32.6839959 75.3139653,32.6839959 C76.8511723,32.6839959 78.0703364,33.5056065 78.0703364,34.9367992 L78.0703364,61.8379205 C78.0703364,64.2762487 76.8776758,65.6544343 75.0489297,66.4760449 L74.6872711,66.6349202 C72.8387901,67.4301246 71.2468724,67.8277268 67.362895,67.8277268 C58.0336391,67.8277268 51.8848114,63.030581 42.0784913,63.030581 C38.1824669,63.030581 35.6911315,63.9847095 35.0285423,64.2762487 L35.0285423,79.0122324 C35.0285423,80.1253823 34.127421,81 33.0142712,81 Z" id="Icon" fill="#59585A" fill-rule="nonzero"></path>
    </g>
</svg>