<?xml version="1.0" encoding="UTF-8"?>
<svg width="110px" height="110px" viewBox="0 0 110 110" version="1.1" xmlns="http://www.w3.org/2000/svg" xmlns:xlink="http://www.w3.org/1999/xlink">
    <!-- Generator: Sketch 59.1 (86144) - https://sketch.com -->
    <title>Miniature - Eject</title>
    <desc>Created with Sketch.</desc>
    <g id="Miniature---Eject" stroke="none" stroke-width="1" fill="none" fill-rule="evenodd">
        <rect id="Area" fill="#F4F2F5" x="5" y="5" width="100" height="100" rx="8"></rect>
        <path d="M76.2898449,58.7296203 C78.851823,58.7296203 80.5064338,57.1283841 80.5064338,54.859966 C80.5064338,53.834174 79.9904104,52.6676483 79.112291,51.7342128 L59.2099912,31.3484799 C57.5553804,29.8006181 56.3811405,29 54.8065914,29 C53.2587297,29 52.0311152,29.8273054 50.4298789,31.3484799 L30.6812981,51.5507443 C29.6938691,52.5114861 29.0800618,53.7657879 29.1067491,54.859966 C29.1067491,57.1283841 30.7613599,58.7296203 33.323338,58.7296203 L76.2898449,58.7296203 Z M75.3291031,64.2805728 C78.6383248,64.2805728 80.6398702,66.2287436 80.6398702,69.4579034 L80.6398702,74.9287941 C80.6398702,78.2913903 78.6383248,80.132812 75.3291031,80.132812 L34.3374543,80.132812 C31.0282326,80.132812 29,78.264703 29,74.9287941 L29,69.4579034 C29,66.2287436 31.0282326,64.2805728 34.3374543,64.2805728 L75.3291031,64.2805728 Z" id="Icon" fill="#59585A" fill-rule="nonzero"></path>
    </g>
</svg>