<?xml version="1.0" encoding="UTF-8"?>
<svg width="110px" height="110px" viewBox="0 0 110 110" version="1.1" xmlns="http://www.w3.org/2000/svg" xmlns:xlink="http://www.w3.org/1999/xlink">
    <!-- Generator: Sketch 59.1 (86144) - https://sketch.com -->
    <title>Miniature - Card</title>
    <desc>Created with Sketch.</desc>
    <g id="Miniature---Card" stroke="none" stroke-width="1" fill="none" fill-rule="evenodd">
        <rect id="Area" fill="#F4F2F5" x="5" y="5" width="100" height="100" rx="8"></rect>
        <path d="M25,43.0214031 L85.0570749,43.0214031 L85.0570749,40.4780024 C85.0570749,34.8442331 82.1854935,32 76.469679,32 L33.587396,32 C27.8442331,32 25,34.8442331 25,40.4780024 L25,43.0214031 Z M25,69.549346 C25,75.1831153 27.8442331,78 33.587396,78 L76.469679,78 C82.1854935,78 85.0570749,75.1831153 85.0570749,69.549346 L85.0570749,49.2294887 L25,49.2294887 L25,69.549346 Z M34.1343639,62.8763377 L34.1343639,57.8168847 C34.1343639,56.2853746 35.2009512,55.1914388 36.8145065,55.1914388 L43.5148633,55.1914388 C45.1284185,55.1914388 46.1950059,56.2853746 46.1950059,57.8168847 L46.1950059,62.8763377 C46.1950059,64.4351962 45.1284185,65.5017836 43.5148633,65.5017836 L36.8145065,65.5017836 C35.2009512,65.5017836 34.1343639,64.4351962 34.1343639,62.8763377 Z" id="Icon" fill="#59585A" fill-rule="nonzero"></path>
    </g>
</svg>