<?xml version="1.0" encoding="UTF-8"?>
<svg width="110px" height="110px" viewBox="0 0 110 110" version="1.1" xmlns="http://www.w3.org/2000/svg" xmlns:xlink="http://www.w3.org/1999/xlink">
    <!-- Generator: Sketch 59.1 (86144) - https://sketch.com -->
    <title>Miniature - Privacy</title>
    <desc>Created with Sketch.</desc>
    <g id="Miniature---Privacy" stroke="none" stroke-width="1" fill="none" fill-rule="evenodd">
        <rect id="Area" fill="#F4F2F5" x="5" y="5" width="100" height="100" rx="8"></rect>
        <path d="M31,65.5429688 L31,38.296875 C31,36.7441406 31.9667969,35.3378906 33.9882812,35.3378906 C35.9511719,35.3378906 36.859375,36.7441406 36.859375,38.296875 L36.859375,56.6953125 C37.8261719,56.0800781 38.9101562,55.5234375 40.0527344,55.0546875 L40.0527344,29.1855469 C40.0527344,27.6328125 41.0488281,26.2265625 42.9824219,26.2265625 C44.9160156,26.2265625 45.9121094,27.6328125 45.9121094,29.1855469 L45.9121094,53.4140625 C46.9667969,53.2382812 48.0214844,53.1210938 49.1054688,53.0625 L49.1054688,26.9296875 C49.1054688,25.3769531 50.0722656,24 52.0351562,24 C53.9980469,24 54.9648438,25.3769531 54.9648438,26.9296875 L54.9648438,53.2675781 C56.1367188,53.4140625 57.2207031,53.6484375 58.1582031,53.9121094 L58.1582031,30.7675781 C58.1582031,29.2148438 59.125,27.8085938 61.0878906,27.8085938 C63.0800781,27.8085938 64.0175781,29.2148438 64.0175781,30.7675781 L64.0175781,59.0390625 C64.0175781,62.0859375 64.3398438,63.7265625 65.2480469,63.7265625 C66.8300781,63.7265625 68.8222656,57.2226562 70.4628906,53.7363281 C71.9277344,50.5722656 72.8945312,49.4296875 75.4140625,49.4296875 C76.5273438,49.4296875 78.1972656,50.5429688 78.1972656,51.8027344 C78.1972656,53.765625 76.5566406,57.4570312 75.6484375,60.3867188 L75.5235852,60.8086829 C74.3893401,64.7306076 72.3884943,73.7072088 66.7421875,79.6640625 C62.5234375,84.1171875 57.25,86.4609375 50.1601562,86.4609375 C38.9980469,86.4609375 31,79.9863281 31,65.5429688 Z" id="Icon" fill="#59585A" fill-rule="nonzero"></path>
    </g>
</svg>