<?xml version="1.0" encoding="UTF-8"?>
<svg width="110px" height="110px" viewBox="0 0 110 110" version="1.1" xmlns="http://www.w3.org/2000/svg" xmlns:xlink="http://www.w3.org/1999/xlink">
    <!-- Generator: Sketch 59.1 (86144) - https://sketch.com -->
    <title>Miniature - Rotate</title>
    <desc>Created with Sketch.</desc>
    <g id="Miniature---Rotate" stroke="none" stroke-width="1" fill="none" fill-rule="evenodd">
        <rect id="Area" fill="#F4F2F5" x="5" y="5" width="100" height="100" rx="8"></rect>
        <path d="M28.6896667,49.3890213 C29.282168,49.0927707 29.5784186,48.6349288 29.5245548,47.8808363 C29.4706911,46.9112889 28.3664842,45.5646952 28.3664842,41.9827559 C28.3664842,36.3138172 31.9361699,32.2864127 37.614691,32.1558902 L37.9542314,32.1526219 L37.9542314,35.8692205 C37.9542314,37.9377381 39.5579871,38.4534128 41.1072943,37.3667461 L48.6192535,31.910235 C49.8311878,31.0214832 49.8311878,29.9711401 48.6192535,29.0554564 L41.23992,23.6690816 C39.6240076,22.4302154 37.9542314,22.9149891 37.9542314,25.0964709 L37.9542314,29.0554564 L37.8734358,29.0554564 C30.1439879,29.0554564 25,34.2533081 25,41.955824 C25,44.8375346 25.5925012,47.2075395 26.4004574,48.6349288 C26.8852312,49.4159531 27.8547786,49.7929994 28.6896667,49.3890213 Z M72.0499839,83 L45.3335649,83 C40.7282144,83 38.4390051,80.7915863 38.4390051,76.0785084 L38.4390051,49.442885 C38.4390051,44.7298071 40.7282144,42.5213934 45.3335649,42.5213934 L72.0499839,42.5213934 C76.6553343,42.5213934 78.9445436,44.7298071 78.9445436,49.442885 L78.9445436,76.0785084 C78.9445436,80.7915863 76.6553343,83 72.0499839,83 Z" id="Icon" fill="#59585A" fill-rule="nonzero"></path>
    </g>
</svg>