<?xml version="1.0" encoding="UTF-8"?>
<svg width="110px" height="110px" viewBox="0 0 110 110" version="1.1" xmlns="http://www.w3.org/2000/svg" xmlns:xlink="http://www.w3.org/1999/xlink">
    <!-- Generator: Sketch 59.1 (86144) - https://sketch.com -->
    <title>Miniature - Question</title>
    <desc>Created with Sketch.</desc>
    <g id="Miniature---Question" stroke="none" stroke-width="1" fill="none" fill-rule="evenodd">
        <rect id="Area" fill="#F4F2F5" x="5" y="5" width="100" height="100" rx="8"></rect>
        <path d="M48.5635597,86.3986048 C52.4796565,90.3147015 57.9375236,90.2530307 61.8536204,86.3369339 L86.3369339,61.8536204 C90.2530307,57.9375236 90.3147015,52.4488211 86.3986048,48.5635597 L61.7302787,23.8643983 C57.814182,19.979137 52.3563149,20.0716432 48.4402181,23.9877399 L23.9877399,48.4402181 C20.0716432,52.3563149 19.979137,57.814182 23.8643983,61.7302787 L48.5635597,86.3986048 Z M54.2064393,63.4262261 C52.5413273,63.4262261 51.6162651,62.5628347 51.6162651,60.8977227 L51.6162651,60.466027 C51.6162651,57.2899801 53.3430479,55.5631972 55.6557035,53.959756 L56.4708375,53.4000009 C58.7811804,51.7840097 59.8801543,50.6850358 59.8801543,48.6869014 C59.8801543,46.2509042 57.968359,44.5857922 55.0081599,44.5857922 C52.8496814,44.5857922 51.2154048,45.6650314 50.2286717,47.4226496 C49.1802679,48.6560659 48.9027492,49.6119636 47.0526248,49.6119636 C45.9733855,49.6119636 44.8324754,48.8410784 44.8324754,47.3918142 C44.8324754,46.8367769 44.9249816,46.312575 45.0791587,45.788373 C45.9117147,42.7973385 49.642799,40.1763289 55.1931723,40.1763289 C60.7127103,40.1763289 65.4921985,43.0748572 65.4921985,48.4402181 C65.4921985,52.3254794 63.2412137,54.1756039 60.1268375,56.303247 C57.8758528,57.814182 56.7966135,58.9242567 56.7966135,60.7435457 L56.7966135,61.144406 C56.7966135,62.4086577 55.8407159,63.4262261 54.2064393,63.4262261 Z M54.3297809,72.7076838 C52.5413273,72.7076838 50.8453799,71.2892551 50.8453799,69.3774598 C50.8453799,67.4656645 52.5104919,66.0472358 54.3297809,66.0472358 C56.1182346,66.0472358 57.7833466,67.4348291 57.7833466,69.3774598 C57.7833466,71.3200905 56.0873992,72.7076838 54.3297809,72.7076838 Z" id="Icon" fill="#59585A" fill-rule="nonzero"></path>
    </g>
</svg>