<?xml version="1.0" encoding="UTF-8"?>
<svg width="110px" height="110px" viewBox="0 0 110 110" version="1.1" xmlns="http://www.w3.org/2000/svg" xmlns:xlink="http://www.w3.org/1999/xlink">
    <!-- Generator: Sketch 59.1 (86144) - https://sketch.com -->
    <title>Miniature - Message</title>
    <desc>Created with Sketch.</desc>
    <g id="Miniature---Message" stroke="none" stroke-width="1" fill="none" fill-rule="evenodd">
        <rect id="Area" fill="#F4F2F5" x="5" y="5" width="100" height="100" rx="8"></rect>
        <path d="M42.0669351,82.632812 C42.9325229,82.632812 43.6039083,82.2444072 44.5568872,81.3996268 L54.1407753,72.638919 L71.2876577,72.6642842 C78.8464905,72.6896494 82.9049242,68.4790245 82.9049242,61.0470178 L82.9049242,41.6172665 C82.9049242,34.1852597 78.8464905,30 71.2876577,30 L38.6172665,30 C31.0584337,30 27,34.1598945 27,41.6172665 L27,61.0470178 C27,68.5043897 31.0584337,72.6642842 38.6172665,72.638919 L39.8094314,72.638919 L39.8094314,80.0201953 C39.8094314,81.5928384 40.6211181,82.632812 42.0669351,82.632812 Z M40.7479441,44.2045179 C39.8601618,44.2045179 39.1245707,43.494292 39.1245707,42.5557792 C39.1245707,41.7187273 39.8601618,40.9831362 40.7479441,40.9831362 L69.15698,40.9831362 C70.0447624,40.9831362 70.7803535,41.7187273 70.7803535,42.5557792 C70.7803535,43.494292 70.0447624,44.2045179 69.15698,44.2045179 L40.7479441,44.2045179 Z M40.7479441,53.2852633 C39.8601618,53.2852633 39.1245707,52.5750374 39.1245707,51.6618899 C39.1245707,50.7994727 39.8601618,50.0638816 40.7479441,50.0638816 L69.15698,50.0638816 C70.0447624,50.0638816 70.7803535,50.7994727 70.7803535,51.6618899 C70.7803535,52.5750374 70.0447624,53.2852633 69.15698,53.2852633 L40.7479441,53.2852633 Z M40.7479441,62.3913739 C39.8601618,62.3913739 39.1245707,61.6557828 39.1245707,60.7680005 C39.1245707,59.8294877 39.8601618,59.144627 40.7479441,59.144627 L59.2391827,59.144627 C60.1015998,59.144627 60.8371909,59.8294877 60.8371909,60.7680005 C60.8371909,61.6557828 60.1015998,62.3913739 59.2391827,62.3913739 L40.7479441,62.3913739 Z" id="Icon" fill="#59585A" fill-rule="nonzero"></path>
    </g>
</svg>