<?xml version="1.0" encoding="UTF-8"?>
<svg width="110px" height="110px" viewBox="0 0 110 110" version="1.1" xmlns="http://www.w3.org/2000/svg" xmlns:xlink="http://www.w3.org/1999/xlink">
    <!-- Generator: Sketch 59.1 (86144) - https://sketch.com -->
    <title>Miniature - Doc</title>
    <desc>Created with Sketch.</desc>
    <g id="Miniature---Doc" stroke="none" stroke-width="1" fill="none" fill-rule="evenodd">
        <rect id="Area" fill="#F4F2F5" x="5" y="5" width="100" height="100" rx="8"></rect>
        <path d="M43.2210429,79 L66.8334102,79 C71.5957545,79 74.0544532,76.47485 74.0544532,71.6903553 L74.0544532,51.8878634 L57.4416244,51.8878634 C54.6728196,51.8878634 53.3437933,50.5588371 53.3437933,47.7900323 L53.3437933,31 L43.2210429,31 C38.4808491,31 36,33.5029995 36,38.2874942 L36,71.6903553 C36,76.4970005 38.4808491,79 43.2210429,79 Z M57.8624827,48.6538994 C57.020766,48.6538994 56.5999077,48.2330411 56.5777573,47.369174 L56.5777573,31.2215044 C57.5966774,31.354407 58.5934472,32.1075219 59.7009691,33.2150438 L71.8172589,45.5085371 C72.9690817,46.6825104 73.7000461,47.6349792 73.8329488,48.6538994 L57.8624827,48.6538994 Z" id="Doc" fill="#59585A" fill-rule="nonzero"></path>
    </g>
</svg>