<?xml version="1.0" encoding="UTF-8"?>
<svg width="110px" height="110px" viewBox="0 0 110 110" version="1.1" xmlns="http://www.w3.org/2000/svg" xmlns:xlink="http://www.w3.org/1999/xlink">
    <!-- Generator: Sketch 59.1 (86144) - https://sketch.com -->
    <title>Miniature - Magic</title>
    <desc>Created with Sketch.</desc>
    <g id="Miniature---Magic" stroke="none" stroke-width="1" fill="none" fill-rule="evenodd">
        <rect id="Area" fill="#F4F2F5" x="5" y="5" width="100" height="100" rx="8"></rect>
        <path d="M48.0613431,41.1005179 C48.4918933,41.1005179 48.7340778,40.831424 48.8148059,40.4277832 L49.0306384,39.3170193 C49.7304373,35.8011828 50.0668005,35.6383848 54.411958,34.8037217 C54.8694176,34.7229936 55.1385114,34.4538997 55.1385114,34.0502589 C55.1385114,33.6197088 54.8694176,33.3775243 54.4657768,33.2967961 L53.5103919,33.0988524 C49.9610574,32.3463399 49.5844489,31.9761481 49.0059671,28.7904424 L48.8148059,27.699644 C48.7609872,27.2690939 48.4918933,27 48.0613431,27 C47.6577024,27 47.3886085,27.2690939 47.3078803,27.6727346 L47.0147521,29.1864211 C46.3716342,32.3567484 45.9326691,32.5886544 41.6838188,33.2967961 C41.2801781,33.3506149 40.9841748,33.6197088 40.9841748,34.0502589 C40.9841748,34.4538997 41.2532687,34.7229936 41.6838188,34.8037217 L42.6335573,35.0016748 C46.5278395,35.8326972 46.5572501,36.199233 47.3078803,40.4277832 C47.3886085,40.831424 47.6577024,41.1005179 48.0613431,41.1005179 Z M71.7416021,50.7340778 C72.1990617,50.7340778 72.5219743,50.4111651 72.6027025,49.9537056 L72.8676169,48.5515786 C73.6356476,44.59913 74.0566773,44.3192275 79.0878643,43.4685438 C79.5991426,43.3609062 79.9220552,43.064903 79.9220552,42.580534 C79.9220552,42.1230745 79.5991426,41.8001619 79.1147737,41.7194337 L77.8589807,41.4852118 C73.934652,40.7230812 73.4190253,40.2023527 72.822344,36.6279768 L72.6027025,35.2342719 C72.5488837,34.7768123 72.1990617,34.4538997 71.7416021,34.4538997 C71.2572332,34.4538997 70.96123,34.7768123 70.8805018,35.2342719 L70.6353663,36.6525602 C69.9178682,40.656275 69.4482281,40.9902762 64.3684306,41.7194337 C63.910971,41.8001619 63.561149,42.1230745 63.561149,42.580534 C63.5880584,43.064903 63.8840616,43.3609062 64.3684306,43.4685438 L65.6237408,43.697263 C69.7755895,44.4878907 70.0904432,45.0437683 70.7641714,49.2229625 L70.8805018,49.9537056 C70.9343206,50.4111651 71.2572332,50.7340778 71.7416021,50.7340778 Z M33.1804531,59.1028966 C33.6379127,59.1028966 33.9608253,58.7530746 34.0415534,58.295615 L34.261829,56.893488 C34.9205747,52.9410394 35.4929241,52.661137 40.4998059,51.8104532 C41.0110842,51.729725 41.3339968,51.4337218 41.3339968,50.9493528 C41.3339968,50.4649839 41.0110842,50.1689807 40.5536247,50.0882525 L39.2987971,49.8535479 C34.9197976,48.9982474 34.8332102,48.427249 34.0415534,43.6030907 C33.9608253,43.1187217 33.6379127,42.7958091 33.1804531,42.7958091 C32.7333433,42.7958091 32.4238058,43.0709536 32.3365003,43.4730879 L32.0926549,44.9988189 C31.4178744,49.0062768 30.8627738,49.261874 25.8072816,50.0882525 C25.3229126,50.1689807 25,50.4649839 25,50.9493528 C25,51.4337218 25.3229126,51.729725 25.7803722,51.8104532 L26.8001142,52.0001765 C31.3255992,52.8698353 31.4357804,53.3953969 32.2745087,58.0725033 L32.3193528,58.3225244 C32.3731716,58.7530746 32.6960842,59.1028966 33.1804531,59.1028966 Z M79.3569581,82.2449679 C80.8100649,83.724984 83.3126378,83.724984 84.7388352,82.2449679 C86.2188514,80.7380423 86.191942,78.343107 84.7388352,76.8361814 L59.2018286,51.1108092 C57.7487218,49.630793 55.2192396,49.6577024 53.7930422,51.1108092 C52.3399354,52.6446441 52.3399354,55.0395794 53.7930422,56.5195956 L79.3569581,82.2449679 Z M64.5298869,63.4891264 L56.2687056,55.2279451 C55.6497898,54.6090292 55.4614241,53.8824758 56.0534305,53.26356 C56.6185276,52.7522817 57.345081,52.913738 57.9909063,53.5326538 L66.1982688,61.7669257 L64.5298869,63.4891264 Z M46.2853237,83.1329776 C45.6664079,83.1329776 45.2089483,82.7024274 45.1282201,82.0835115 L44.953901,80.7690153 C44.1281632,74.7882153 43.4795028,74.7213797 36.3019418,73.311052 C35.7099353,73.2034144 35.2793852,72.7728643 35.2793852,72.1539484 C35.2793852,71.5350325 35.7368447,71.077573 36.3288512,70.9968448 L37.1650794,70.8832894 C43.965576,69.9454946 44.2480448,69.4490442 45.1282201,62.278204 C45.2089483,61.6323788 45.6664079,61.2018286 46.2853237,61.2018286 C46.9042396,61.2018286 47.3616991,61.6323788 47.4424273,62.3051134 L47.5719157,63.3702631 C48.3584433,69.5959999 49.0425007,69.6182563 56.2417962,70.9968448 C56.8607121,71.1313918 57.2912623,71.5350325 57.2912623,72.1539484 C57.2912623,72.7567186 56.9162052,73.1719603 56.2536045,73.2902819 L54.9982789,73.4813239 C48.5914385,74.4882298 48.2587951,75.0905661 47.4424273,82.0296928 C47.3616991,82.7024274 46.9042396,83.1329776 46.2853237,83.1329776 Z" id="Icon" fill="#59585A" fill-rule="nonzero"></path>
    </g>
</svg>