<?xml version="1.0" encoding="UTF-8"?>
<svg width="110px" height="110px" viewBox="0 0 110 110" version="1.1" xmlns="http://www.w3.org/2000/svg" xmlns:xlink="http://www.w3.org/1999/xlink">
    <!-- Generator: Sketch 59.1 (86144) - https://sketch.com -->
    <title>Miniature - Magic</title>
    <desc>Created with Sketch.</desc>
    <g id="Miniature---Magic" stroke="none" stroke-width="1" fill="none" fill-rule="evenodd">
        <rect id="Area" fill="#F4F2F5" x="5" y="5" width="100" height="100" rx="8"></rect>
        <path d="M47.1608963,39.4251773 C47.4875041,39.4251773 47.6671384,39.2537082 47.7438912,38.9769081 L48.0615002,37.5012313 C48.8381665,33.994615 49.2682487,33.7525157 53.8140179,32.8325386 C54.146674,32.7720557 54.3886057,32.5603655 54.3886057,32.2277094 C54.3886057,31.8648118 54.146674,31.6531216 53.8140179,31.5926387 L52.8182249,31.3867917 C49.1986528,30.6147369 48.7772515,30.1572326 48.0615002,26.9456075 L47.7657255,25.5745878 C47.7052426,25.2419317 47.5237938,25 47.1608963,25 C46.8342885,25 46.6546542,25.1959647 46.5779014,25.4776639 L46.2602924,26.9456075 C45.4836261,30.4305624 45.0535439,30.6726616 40.5077747,31.5926387 C40.1751186,31.6531216 39.9331869,31.8648118 39.9331869,32.2277094 C39.9331869,32.5603655 40.1751186,32.7720557 40.5077747,32.8325386 L41.5035676,33.0383961 C45.1231398,33.8105737 45.5445411,34.2696437 46.2602924,37.5012313 L46.5560671,38.880831 C46.61655,39.2134871 46.7979988,39.4251773 47.1608963,39.4251773 Z M72.1403438,50.1004134 C72.5637243,50.1004134 72.805656,49.8282402 72.8963804,49.4351012 L73.1690858,47.9346466 C73.9852101,43.6137912 74.5337395,43.225521 80.0333654,42.2678747 C80.4567458,42.2073918 80.728919,41.9352187 80.728919,41.5118382 C80.728919,41.0884577 80.4567458,40.846526 80.0333654,40.7558016 L79.2053874,40.6127874 C73.9496884,39.680824 73.8756277,39.0910812 72.8963804,33.6188166 C72.805656,33.2256776 72.5637243,32.923263 72.1403438,32.923263 C71.7169634,32.923263 71.4750317,33.2256776 71.3843073,33.6188166 L71.1116018,35.1192451 C70.2954775,39.4398523 69.7469481,39.8255167 64.2473223,40.7558016 C63.8541833,40.846526 63.5517686,41.0884577 63.5517686,41.5118382 C63.5517686,41.9352187 63.8541833,42.2073918 64.2473223,42.2678747 L65.0753002,42.4150068 C70.3309992,43.3730939 70.4050599,43.9628367 71.3843073,49.4351012 C71.4750317,49.8282402 71.7169634,50.1004134 72.1403438,50.1004134 Z M30.5885752,58.7797129 C31.0119556,58.7797129 31.2538873,58.4772983 31.3446117,58.0841593 L31.6173172,56.5837309 C32.4334415,52.2631236 32.9819709,51.8774593 38.4815967,50.9471743 C38.8747357,50.8564499 39.1771504,50.6145182 39.1771504,50.1911378 C39.1771504,49.7677573 38.8747357,49.4955841 38.4815967,49.4351012 L37.1450955,49.1931938 C32.3919766,48.2851409 32.2912175,47.5577305 31.3446117,42.2678747 C31.2538873,41.8747357 31.0119556,41.6025626 30.5885752,41.6025626 C30.1651947,41.6025626 29.923263,41.8747357 29.8325386,42.2678747 L29.5598332,43.7683293 C28.7437089,48.0891847 28.1951795,48.4774549 22.6955536,49.4351012 C22.3024146,49.4955841 22,49.7677573 22,50.1911378 C22,50.6145182 22.3024146,50.8564499 22.6955536,50.9471743 L23.7820267,51.1365257 C28.7819507,52.0431663 28.8696121,52.7030992 29.8325386,58.0841593 C29.923263,58.4772983 30.1651947,58.7797129 30.5885752,58.7797129 Z M82.2409921,84.6361629 C83.5111335,85.9365457 85.6885187,85.9365457 86.8981772,84.6361629 C88.1380772,83.3055385 88.1380772,81.2491191 86.8981772,79.9789777 L58.138547,51.1286231 C56.8684056,49.8584817 54.6910203,49.8584817 53.4813618,51.1286231 C52.2112204,52.4592474 52.2414619,54.5459083 53.4813618,55.8160497 L82.2409921,84.6361629 Z M64.6707027,63.8602785 L55.7797129,54.9692887 C55.2353666,54.4249424 55.1144008,53.8503546 55.5982642,53.3060083 C56.0802375,52.8523864 56.641949,52.9303527 57.1588078,53.4153162 L66.1525344,62.4086884 L64.6707027,63.8602785 Z M44.9532696,85.1200262 C44.3786818,85.1200262 43.9855428,84.7268872 43.9250599,84.2127824 L43.7333174,82.8236145 C42.7766174,76.1323528 42.0836499,76.0405805 34.2175506,74.5355146 C33.7034458,74.4145487 33.3103067,74.0818927 33.3103067,73.5073049 C33.3103067,72.9327171 33.7034458,72.5395781 34.2175506,72.4790952 L35.6451538,72.2738941 C42.6300809,71.2381329 42.9303708,70.533804 43.9250599,62.8320688 C43.9855428,62.2877225 44.3786818,61.8945835 44.9532696,61.8945835 C45.4976159,61.8945835 45.8907549,62.2877225 45.9814793,62.8623103 L46.1546604,64.2511478 C47.0336474,70.9390519 47.9080817,71.0024267 55.6889885,72.4790952 C56.2030934,72.5698196 56.5962324,72.9327171 56.5962324,73.5073049 C56.5962324,74.1121341 56.2030934,74.4145487 55.5680227,74.5355146 L53.6274516,74.8574095 C47.2710366,75.9595798 46.8665952,76.7671132 45.9814793,84.1522995 C45.8907549,84.7268872 45.4976159,85.1200262 44.9532696,85.1200262 Z" id="Icon" fill="#59585A" fill-rule="nonzero"></path>
    </g>
</svg>