<?xml version="1.0" encoding="UTF-8"?>
<svg width="110px" height="110px" viewBox="0 0 110 110" version="1.1" xmlns="http://www.w3.org/2000/svg" xmlns:xlink="http://www.w3.org/1999/xlink">
    <!-- Generator: Sketch 59.1 (86144) - https://sketch.com -->
    <title>Miniature - Shuffle</title>
    <desc>Created with Sketch.</desc>
    <g id="Miniature---Shuffle" stroke="none" stroke-width="1" fill="none" fill-rule="evenodd">
        <rect id="Area" fill="#F4F2F5" x="5" y="5" width="100" height="100" rx="8"></rect>
        <path d="M19,70.2798903 C19,68.3173467 20.4719077,66.9374332 22.6184398,66.9374332 L29.7326604,66.9374332 C32.6458111,66.9374332 34.5163604,65.9254966 37.0615342,63.012346 L44.390408,54.4568824 L37.0615342,45.9320836 C34.5470252,43.0189329 32.6764758,42.0069963 29.7326604,42.0069963 L22.6184398,42.0069963 C20.4719077,42.0069963 19,40.6270829 19,38.6645393 C19,36.6713309 20.441243,35.3220822 22.6184398,35.3220822 L29.5793367,35.3220822 C34.8843374,35.3220822 38.042806,36.8859841 41.875899,41.332372 L48.7448016,49.3665349 L55.644369,41.332372 C59.4161325,36.8859841 62.6052659,35.3220822 67.9409314,35.3220822 L73.5832443,35.3220822 L73.5832443,28.6984975 C73.5832443,27.0426013 74.6258455,26 76.3124065,26 C77.0483603,26 77.8149789,26.2759827 78.3976091,26.7666186 L89.9888823,36.3953482 C91.3687957,37.5606085 91.3687957,39.3698284 89.9888823,40.5044239 L78.3976091,50.071824 C77.8149789,50.5624599 77.0483603,50.8384426 76.3124065,50.8384426 C74.6258455,50.8384426 73.5832443,49.7958413 73.5832443,48.1399451 L73.5832443,41.9763316 L68.1249198,41.9763316 C65.0354469,41.9763316 63.0970997,42.9260103 60.7207851,45.6617326 L53.1605248,54.4568824 L60.4893986,63.012346 C62.9732428,65.9254966 64.9357865,66.9374332 68.1249198,66.9374332 L73.5832443,66.9374332 L73.5832443,60.9884729 C73.5832443,59.3325767 74.6258455,58.2899754 76.3124065,58.2899754 C77.0483603,58.2899754 77.8149789,58.5659581 78.3976091,59.056594 L89.9888823,68.6853236 C91.3687957,69.8199191 91.3687957,71.6598038 89.9888823,72.7943993 L78.3976091,82.3617994 C77.8149789,82.8524353 77.0483603,83.128418 76.3124065,83.128418 C74.6258455,83.128418 73.5832443,82.0858167 73.5832443,80.4299205 L73.5832443,73.6223474 L67.9409314,73.6223474 C62.726531,73.6223474 59.5622019,72.1287241 55.9006639,67.9107692 L48.7448016,59.5778946 L41.875899,67.6120576 C38.042806,72.0584454 34.8843374,73.5916826 29.5793367,73.5916826 L22.6184398,73.5916826 C20.441243,73.5916826 19,72.2424339 19,70.2798903 Z" id="Icon" fill="#59585A" fill-rule="nonzero"></path>
    </g>
</svg>