<?xml version="1.0" encoding="UTF-8"?>
<svg width="110px" height="110px" viewBox="0 0 110 110" version="1.1" xmlns="http://www.w3.org/2000/svg" xmlns:xlink="http://www.w3.org/1999/xlink">
    <!-- Generator: Sketch 59.1 (86144) - https://sketch.com -->
    <title>Miniature - Message</title>
    <desc>Created with Sketch.</desc>
    <g id="Miniature---Message" stroke="none" stroke-width="1" fill="none" fill-rule="evenodd">
        <rect id="Area" fill="#F4F2F5" x="5" y="5" width="100" height="100" rx="8"></rect>
        <path d="M42.0669351,84.632812 C42.9325229,84.632812 43.6039083,84.2444072 44.5568872,83.3996268 L54.1407753,74.638919 L71.2876577,74.6642842 C78.8464905,74.6896494 82.9049242,70.4790245 82.9049242,63.0470178 L82.9049242,43.6172665 C82.9049242,36.1852597 78.8464905,32 71.2876577,32 L38.6172665,32 C31.0584337,32 27,36.1598945 27,43.6172665 L27,63.0470178 C27,70.5043897 31.0584337,74.6642842 38.6172665,74.638919 L39.8094314,74.638919 L39.8094314,82.0201953 C39.8094314,83.5928384 40.6211181,84.632812 42.0669351,84.632812 Z M40.7479441,46.2045179 C39.8601618,46.2045179 39.1245707,45.494292 39.1245707,44.5557792 C39.1245707,43.7187273 39.8601618,42.9831362 40.7479441,42.9831362 L69.15698,42.9831362 C70.0447624,42.9831362 70.7803535,43.7187273 70.7803535,44.5557792 C70.7803535,45.494292 70.0447624,46.2045179 69.15698,46.2045179 L40.7479441,46.2045179 Z M40.7479441,55.2852633 C39.8601618,55.2852633 39.1245707,54.5750374 39.1245707,53.6618899 C39.1245707,52.7994727 39.8601618,52.0638816 40.7479441,52.0638816 L69.15698,52.0638816 C70.0447624,52.0638816 70.7803535,52.7994727 70.7803535,53.6618899 C70.7803535,54.5750374 70.0447624,55.2852633 69.15698,55.2852633 L40.7479441,55.2852633 Z M40.7479441,64.3913739 C39.8601618,64.3913739 39.1245707,63.6557828 39.1245707,62.7680005 C39.1245707,61.8294877 39.8601618,61.144627 40.7479441,61.144627 L59.2391827,61.144627 C60.1015998,61.144627 60.8371909,61.8294877 60.8371909,62.7680005 C60.8371909,63.6557828 60.1015998,64.3913739 59.2391827,64.3913739 L40.7479441,64.3913739 Z" id="Icon" fill="#59585A" fill-rule="nonzero"></path>
    </g>
</svg>