<?xml version="1.0" encoding="UTF-8"?>
<svg width="110px" height="110px" viewBox="0 0 110 110" version="1.1" xmlns="http://www.w3.org/2000/svg" xmlns:xlink="http://www.w3.org/1999/xlink">
    <!-- Generator: Sketch 59.1 (86144) - https://sketch.com -->
    <title>Miniature - Magic</title>
    <desc>Created with Sketch.</desc>
    <g id="Miniature---Magic" stroke="none" stroke-width="1" fill="none" fill-rule="evenodd">
        <rect id="Area" fill="#F4F2F5" x="5" y="5" width="100" height="100" rx="8"></rect>
        <path d="M47.1074219,39.3515625 C47.5761719,39.3515625 47.8398438,39.0585938 47.9277344,38.6191406 L48.1627162,37.4098261 C48.9246036,33.5820529 49.29081,33.4048109 54.0214844,32.4960938 C54.5195312,32.4082031 54.8125,32.1152344 54.8125,31.6757812 C54.8125,31.2070312 54.5195312,30.9433594 54.0800781,30.8554688 L53.0399282,30.6399628 C49.1756851,29.8206849 48.7656627,29.4176484 48.135856,25.9492963 L47.9277344,24.7617188 C47.8691406,24.2929688 47.5761719,24 47.1074219,24 C46.6679688,24 46.375,24.2929688 46.2871094,24.7324219 L45.9679738,26.3804076 C45.2677963,29.8320168 44.7898849,30.0844984 40.1640625,30.8554688 C39.7246094,30.9140625 39.4023438,31.2070312 39.4023438,31.6757812 C39.4023438,32.1152344 39.6953125,32.4082031 40.1640625,32.4960938 L41.1980649,32.7116098 C45.4378607,33.6163633 45.4698808,34.0154194 46.2871094,38.6191406 C46.375,39.0585938 46.6679688,39.3515625 47.1074219,39.3515625 Z M72.8886719,49.8398438 C73.3867188,49.8398438 73.7382812,49.4882812 73.8261719,48.9902344 L74.1145904,47.463706 C74.9507634,43.1605831 75.4091482,42.8558468 80.8867188,41.9296875 C81.4433594,41.8125 81.7949219,41.4902344 81.7949219,40.9628906 C81.7949219,40.4648438 81.4433594,40.1132812 80.9160156,40.0253906 L79.5488046,39.7703878 C75.2762964,38.9406384 74.7149216,38.3737091 74.0653007,34.4822028 L73.8261719,32.9648438 C73.7675781,32.4667969 73.3867188,32.1152344 72.8886719,32.1152344 C72.3613281,32.1152344 72.0390625,32.4667969 71.9511719,32.9648438 L71.6842872,34.5089674 C70.9031303,38.8679049 70.3918221,39.2315398 64.8613281,40.0253906 C64.3632812,40.1132812 63.9824219,40.4648438 63.9824219,40.9628906 C64.0117188,41.4902344 64.3339844,41.8125 64.8613281,41.9296875 L66.2280137,42.1786995 C70.7482281,43.0394743 71.0910166,43.6446712 71.8245202,48.1946573 L71.9511719,48.9902344 C72.0097656,49.4882812 72.3613281,49.8398438 72.8886719,49.8398438 Z M30.90625,58.9511719 C31.4042969,58.9511719 31.7558594,58.5703125 31.84375,58.0722656 L32.0835692,56.5457373 C32.8007609,52.2426143 33.4238911,51.937878 38.875,51.0117188 C39.4316406,50.9238281 39.7832031,50.6015625 39.7832031,50.0742188 C39.7832031,49.546875 39.4316406,49.2246094 38.9335938,49.1367188 L37.5674337,48.8811904 C32.7999149,47.9500048 32.7056452,47.3283455 31.84375,42.0761719 C31.7558594,41.5488281 31.4042969,41.1972656 30.90625,41.1972656 C30.4194712,41.1972656 30.0824704,41.4968218 29.9874189,41.9346348 L29.7219388,43.5957337 C28.9872894,47.9587466 28.3829385,48.2370212 22.8789062,49.1367188 C22.3515625,49.2246094 22,49.546875 22,50.0742188 C22,50.6015625 22.3515625,50.9238281 22.8496094,51.0117188 L23.9598263,51.2182749 C28.8868274,52.1650928 29.0067841,52.7372839 29.9199272,57.8293587 L29.96875,58.1015625 C30.0273438,58.5703125 30.3789062,58.9511719 30.90625,58.9511719 Z M81.1796875,84.1464844 C82.7617188,85.7578125 85.4863281,85.7578125 87.0390625,84.1464844 C88.6503906,82.5058594 88.6210938,79.8984375 87.0390625,78.2578125 L59.2363281,50.25 C57.6542969,48.6386719 54.9003906,48.6679688 53.3476562,50.25 C51.765625,51.9199219 51.765625,54.5273438 53.3476562,56.1386719 L81.1796875,84.1464844 Z M65.0371094,63.7265625 L56.0429688,54.7324219 C55.3691406,54.0585938 55.1640625,53.2675781 55.8085938,52.59375 C56.4238281,52.0371094 57.2148438,52.2128906 57.9179688,52.8867188 L66.8535156,61.8515625 L65.0371094,63.7265625 Z M45.1738281,85.1132812 C44.5,85.1132812 44.0019531,84.6445312 43.9140625,83.9707031 L43.7242772,82.5395804 C42.8252772,76.0281441 42.1190655,75.9553786 34.3046875,74.4199219 C33.6601562,74.3027344 33.1914062,73.8339844 33.1914062,73.1601562 C33.1914062,72.4863281 33.6894531,71.9882812 34.3339844,71.9003906 L35.2444056,71.7767602 C42.6482648,70.7557611 42.9557951,70.215264 43.9140625,62.4082031 C44.0019531,61.7050781 44.5,61.2363281 45.1738281,61.2363281 C45.8476562,61.2363281 46.3457031,61.7050781 46.4335938,62.4375 L46.5745708,63.5971533 C47.4308817,70.3752581 48.175631,70.3994892 56.0136719,71.9003906 C56.6875,72.046875 57.15625,72.4863281 57.15625,73.1601562 C57.15625,73.8164062 56.7479167,74.2684896 56.0265278,74.397309 L54.6598256,74.6053009 C47.6845491,75.7015428 47.3223925,76.3573204 46.4335938,83.9121094 C46.3457031,84.6445312 45.8476562,85.1132812 45.1738281,85.1132812 Z" id="Icon" fill="#59585A" fill-rule="nonzero"></path>
    </g>
</svg>