<?xml version="1.0" encoding="UTF-8"?>
<svg width="110px" height="110px" viewBox="0 0 110 110" version="1.1" xmlns="http://www.w3.org/2000/svg" xmlns:xlink="http://www.w3.org/1999/xlink">
    <!-- Generator: Sketch 59.1 (86144) - https://sketch.com -->
    <title>Miniature - Question</title>
    <desc>Created with Sketch.</desc>
    <g id="Miniature---Question" stroke="none" stroke-width="1" fill="none" fill-rule="evenodd">
        <rect id="Area" fill="#F4F2F5" x="5" y="5" width="100" height="100" rx="8"></rect>
        <path d="M48.3529507,84.5262565 C52.09705,88.2703558 57.3152041,88.2113936 61.0593034,84.4672943 L84.4672943,61.0593034 C88.2113936,57.3152041 88.2703558,52.0675689 84.5262565,48.3529507 L60.941379,24.7385921 C57.1972797,21.0239739 51.9791256,21.1124172 48.2350263,24.8565165 L24.8565165,48.2350263 C21.1124172,51.9791256 21.0239739,57.1972797 24.7385921,60.941379 L48.3529507,84.5262565 Z M53.7479914,62.5628394 C52.1560122,62.5628394 51.2715793,61.7373687 51.2715793,60.1453894 L51.2715793,59.7326541 C51.2715793,56.6961011 52.9225207,55.0451597 55.133603,53.5121426 L55.9129358,52.9769723 C58.1218069,51.4319564 59.1725132,50.3812502 59.1725132,48.4708751 C59.1725132,46.1418684 57.3446852,44.5498892 54.5144999,44.5498892 C52.4508232,44.5498892 50.888325,45.5817276 49.9449299,47.2621501 C48.9425726,48.441394 48.6772428,49.355308 46.9083769,49.355308 C45.8765386,49.355308 44.785738,48.6182806 44.785738,47.232669 C44.785738,46.7020093 44.8741813,46.2008306 45.0215867,45.699652 C45.8175764,42.8399856 49.3847891,40.3340923 54.6913865,40.3340923 C59.9685029,40.3340923 64.5380729,43.1053155 64.5380729,48.2350263 C64.5380729,51.9496445 62.3859528,53.7185103 59.408362,55.752706 C57.2562419,57.1972797 56.2244036,58.2585992 56.2244036,59.9979839 L56.2244036,60.3812382 C56.2244036,61.5899632 55.3104895,62.5628394 53.7479914,62.5628394 Z M53.8659158,71.4366495 C52.1560122,71.4366495 50.5345519,70.0805191 50.5345519,68.2526911 C50.5345519,66.4248631 52.1265311,65.0687326 53.8659158,65.0687326 C55.5758194,65.0687326 57.1677986,66.395382 57.1677986,68.2526911 C57.1677986,70.1100002 55.5463383,71.4366495 53.8659158,71.4366495 Z" id="Icon" fill="#59585A" fill-rule="nonzero"></path>
    </g>
</svg>