<?xml version="1.0" encoding="UTF-8"?>
<svg width="110px" height="110px" viewBox="0 0 110 110" version="1.1" xmlns="http://www.w3.org/2000/svg" xmlns:xlink="http://www.w3.org/1999/xlink">
    <!-- Generator: Sketch 59.1 (86144) - https://sketch.com -->
    <title>Miniature - Eject</title>
    <desc>Created with Sketch.</desc>
    <g id="Miniature---Eject" stroke="none" stroke-width="1" fill="none" fill-rule="evenodd">
        <rect id="Area" fill="#F4F2F5" x="5" y="5" width="100" height="100" rx="8"></rect>
        <path d="M78.0643752,59.4738792 C80.7766664,59.4738792 82.5283545,57.7786972 82.5283545,55.3771894 C82.5283545,54.2912134 81.9820556,53.0562468 81.0524163,52.0680459 L59.9824338,30.4862669 C58.2307457,28.847591 56.9876123,28 55.3206833,28 C53.6820074,28 52.3823678,28.875844 50.6871858,30.4862669 L29.7799411,51.8738132 C28.7345789,52.8909224 28.0847591,54.218815 28.1130121,55.3771894 C28.1130121,57.7786972 29.8647002,59.4738792 32.5769914,59.4738792 L78.0643752,59.4738792 Z M77.047266,65.3505102 C80.5506421,65.3505102 82.6696196,67.4129816 82.6696196,70.8315986 L82.6696196,76.6234705 C82.6696196,80.1833527 80.5506421,82.132812 77.047266,82.132812 L33.6506067,82.132812 C30.1472305,82.132812 28,80.1550997 28,76.6234705 L28,70.8315986 C28,67.4129816 30.1472305,65.3505102 33.6506067,65.3505102 L77.047266,65.3505102 Z" id="Icon" fill="#59585A" fill-rule="nonzero"></path>
    </g>
</svg>