<?xml version="1.0" encoding="UTF-8"?>
<svg width="110px" height="110px" viewBox="0 0 110 110" version="1.1" xmlns="http://www.w3.org/2000/svg" xmlns:xlink="http://www.w3.org/1999/xlink">
    <!-- Generator: Sketch 59.1 (86144) - https://sketch.com -->
    <title>Miniature - Shuffle</title>
    <desc>Created with Sketch.</desc>
    <g id="Miniature---Shuffle" stroke="none" stroke-width="1" fill="none" fill-rule="evenodd">
        <rect id="Area" fill="#F4F2F5" x="5" y="5" width="100" height="100" rx="8"></rect>
        <path d="M25,68.4294149 C25,66.8148148 26.2109501,65.6795491 27.9769189,65.6795491 L33.8298443,65.6795491 C36.2265164,65.6795491 37.7654321,64.8470209 39.8593666,62.4503489 L45.8888889,55.4117016 L39.8593666,48.3982823 C37.7906602,46.0016103 36.2517445,45.1690821 33.8298443,45.1690821 L27.9769189,45.1690821 C26.2109501,45.1690821 25,44.0338164 25,42.4192163 C25,40.7793881 26.185722,39.6693505 27.9769189,39.6693505 L33.7037037,39.6693505 C38.0681696,39.6693505 40.6666667,40.955985 43.8201825,44.6140633 L49.4712829,51.2238325 L55.1476114,44.6140633 C58.250671,40.955985 60.8743961,39.6693505 65.2640902,39.6693505 L69.9060655,39.6693505 L69.9060655,34.2200751 C69.9060655,32.8577563 70.7638218,32 72.1513688,32 C72.7568438,32 73.387547,32.2270531 73.8668814,32.6307032 L83.4031133,40.5523349 C84.538379,41.5110038 84.538379,42.9994632 83.4031133,43.9329039 L73.8668814,51.8040794 C73.387547,52.2077295 72.7568438,52.4347826 72.1513688,52.4347826 C70.7638218,52.4347826 69.9060655,51.5770263 69.9060655,50.2147075 L69.9060655,45.143854 L65.4154589,45.143854 C62.8737252,45.143854 61.2790316,45.9251622 59.3240189,48.1758625 L53.1041331,55.4117016 L59.1336554,62.4503489 C61.1771337,64.8470209 62.7917338,65.6795491 65.4154589,65.6795491 L69.9060655,65.6795491 L69.9060655,60.7852925 C69.9060655,59.4229737 70.7638218,58.5652174 72.1513688,58.5652174 C72.7568438,58.5652174 73.387547,58.7922705 73.8668814,59.1959206 L83.4031133,67.1175523 C84.538379,68.050993 84.538379,69.5646806 83.4031133,70.4981213 L73.8668814,78.3692968 C73.387547,78.7729469 72.7568438,79 72.1513688,79 C70.7638218,79 69.9060655,78.1422437 69.9060655,76.7799249 L69.9060655,71.1792807 L65.2640902,71.1792807 C60.9741619,71.1792807 58.3708434,69.9504651 55.3584672,66.4803203 L49.4712829,59.6247987 L43.8201825,66.2345679 C40.6666667,69.8926463 38.0681696,71.1540526 33.7037037,71.1540526 L27.9769189,71.1540526 C26.185722,71.1540526 25,70.044015 25,68.4294149 Z" id="Icon" fill="#59585A" fill-rule="nonzero"></path>
    </g>
</svg>