<?xml version="1.0" encoding="UTF-8"?>
<svg width="110px" height="110px" viewBox="0 0 110 110" version="1.1" xmlns="http://www.w3.org/2000/svg" xmlns:xlink="http://www.w3.org/1999/xlink">
    <!-- Generator: Sketch 59.1 (86144) - https://sketch.com -->
    <title>Miniature - Repeat</title>
    <desc>Created with Sketch.</desc>
    <g id="Miniature---Repeat" stroke="none" stroke-width="1" fill="none" fill-rule="evenodd">
        <rect id="Area" fill="#F4F2F5" x="5" y="5" width="100" height="100" rx="8"></rect>
        <path d="M27,53.6271834 C27,55.1921397 28.2570961,56.4492358 29.8220524,56.4492358 C31.3870087,56.4492358 32.6441048,55.1921397 32.6441048,53.6271834 L32.6441048,51.933952 C32.6441048,47.8548035 35.4661572,45.1610262 39.6735808,45.1610262 L59.0174672,45.1610262 L59.0174672,50.5229258 C59.0174672,51.9082969 59.915393,52.7805677 61.3264192,52.7805677 C61.9421397,52.7805677 62.5835153,52.5496725 63.0709607,52.1391921 L72.768559,44.1348253 C73.9230349,43.2112445 73.8973799,41.6719432 72.768559,40.6970524 L63.0709607,32.6413755 C62.5835153,32.2565502 61.9421397,32 61.3264192,32 C59.915393,32 59.0174672,32.8979258 59.0174672,34.2832969 L59.0174672,39.5938865 L40.2123362,39.5938865 C32.1310044,39.5938865 27,44.2374454 27,51.5234716 L27,53.6271834 Z M51.0387555,60.5027293 L51.0387555,65.8133188 L70.3826419,65.8133188 C74.5900655,65.8133188 77.4121179,63.0938865 77.4121179,59.040393 L77.4121179,57.3471616 C77.4121179,55.7565502 78.669214,54.4994541 80.2341703,54.4994541 C81.7991266,54.4994541 83.0562227,55.7565502 83.0562227,57.3471616 L83.0562227,59.4508734 C83.0562227,66.7112445 77.9252183,71.3804585 69.8438865,71.3804585 L51.0387555,71.3804585 L51.0387555,76.7423581 C51.0387555,78.1277293 50.1664847,79 48.7298035,79 C48.1700576,79 47.5891091,78.8091775 47.1411582,78.4660826 L37.3133188,70.3029476 C36.1331878,69.3280568 36.1588428,67.8144105 37.3133188,66.8651747 L47.010917,58.8608079 C47.4727074,58.4759825 48.114083,58.2450873 48.7298035,58.2450873 C50.1664847,58.2450873 51.0387555,59.1173581 51.0387555,60.5027293 Z" id="Icon" fill="#59585A" fill-rule="nonzero"></path>
    </g>
</svg>